# Blender v2.83.0 OBJ File: ''
# www.blender.org
mtllib Clover_1.mtl
o Plane.003
v -0.780682 0.029301 0.609988
v 0.764183 0.034687 0.598898
v -0.013086 0.183214 0.004106
v -0.789266 0.022765 -0.589011
v 0.755599 0.028151 -0.600100
vt 0.942540 0.127287
vt 0.057461 0.127287
vt 0.500000 0.470753
vt 0.942540 0.814219
vt 0.057460 0.814219
vn -0.0016 0.9697 0.2443
vn -0.1996 0.9799 -0.0039
vn 0.1927 0.9812 -0.0067
vn -0.0052 0.9670 -0.2548
usemtl None.003
s 1
f 1/1/1 2/2/1 3/3/1
f 1/1/2 3/3/2 4/4/2
f 2/2/3 5/5/3 3/3/3
f 3/3/4 5/5/4 4/4/4
