# Blender v2.83.0 OBJ File: ''
# www.blender.org
mtllib clover.mtl
o Plane_Plane.010
v -0.191340 0.002816 -0.315793
v -0.073964 0.007599 -0.178956
v -0.288133 0.009973 -0.233017
v -0.170757 0.014756 -0.096179
v -0.285996 0.023194 -0.119072
v -0.286538 0.008821 0.045298
v -0.129149 0.028758 -0.118067
v -0.129691 0.014385 0.046302
v 0.570768 -0.019814 0.042655
v 0.443688 -0.005366 0.177745
v 0.449486 -0.021948 -0.071208
v 0.322406 -0.007500 0.063882
v 0.206215 0.019117 0.103365
v 0.311275 0.002012 0.236057
v 0.437825 -0.002259 0.135310
v 0.332765 0.014846 0.002617
v -0.541950 0.030741 0.297868
v -0.608041 0.021289 0.126464
v -0.444750 0.018160 0.063674
v -0.378659 0.027613 0.235078
v 0.353174 0.006074 -0.109990
v 0.523448 0.017839 -0.033130
v 0.609392 0.004721 -0.221522
v 0.439118 -0.007045 -0.298382
v -0.463984 0.001581 -0.566562
v -0.293805 0.021357 -0.557617
v -0.472067 0.001832 -0.413349
v -0.301887 0.021608 -0.404404
v -0.093083 0.024436 0.393503
v 0.055202 0.018955 0.480711
v -0.154481 0.003970 0.496616
v -0.006196 -0.001511 0.583823
v 0.079954 0.011178 0.262477
v 0.122692 0.009774 0.095065
v 0.198297 0.007084 0.292723
v 0.241035 0.005679 0.125311
v -0.342044 0.028959 -0.017719
v -0.207931 0.012276 -0.140074
v -0.458901 0.029255 -0.145846
v -0.324788 0.012571 -0.268201
v 0.434069 0.002110 0.243062
v 0.358585 -0.012127 0.413758
v 0.282333 -0.015215 0.174517
v 0.206848 -0.029451 0.345212
v -0.284542 -0.007768 0.377647
v -0.288310 0.009285 0.542522
v -0.131314 0.024127 0.544574
v -0.127547 0.007073 0.379700
v -0.066744 0.018213 -0.324845
v -0.171558 0.033203 -0.467588
v -0.035550 0.028921 -0.567906
v 0.069264 0.013931 -0.425162
v -0.165164 -0.005422 0.252833
v -0.043921 -0.003661 0.119159
v -0.191521 0.015820 -0.014457
v -0.312763 0.014059 0.119218
v -0.072192 -0.000840 0.088680
v 0.106612 0.016490 0.113576
v -0.095370 0.008038 0.248961
v 0.083435 0.025367 0.273857
v -0.080155 0.015382 0.256722
v 0.075461 0.020710 0.305620
v -0.114054 0.001173 0.366151
v 0.041562 0.006501 0.415049
v 0.204434 0.008177 -0.416604
v 0.025076 0.013186 -0.427817
v 0.212259 0.004350 -0.543465
v 0.032900 0.009359 -0.554679
v 0.332974 0.039383 0.452318
v 0.421872 0.012844 0.611943
v 0.485382 0.028877 0.365692
v 0.574281 0.002338 0.525317
v 0.095532 -0.010360 -0.399029
v 0.259520 -0.010376 -0.360445
v 0.061038 -0.014427 -0.252427
v 0.225026 -0.014444 -0.213842
v -0.453324 0.017946 -0.149908
v -0.333799 0.024885 -0.024205
v -0.214889 -0.000874 -0.135848
v -0.334414 -0.007814 -0.261551
vt 0.150476 0.999900
vt 0.062080 0.999900
vt 0.062080 0.874925
vt 0.150476 0.874925
vt 0.381121 0.749950
vt 0.262243 0.749950
vt 0.262243 0.624975
vt 0.381121 0.624975
vt 0.262243 0.749950
vt 0.150476 0.749950
vt 0.150476 0.624975
vt 0.262243 0.624975
vt 0.381121 0.999900
vt 0.262243 0.999900
vt 0.262243 0.874925
vt 0.381121 0.874925
vt 0.500000 0.999900
vt 0.381121 0.999900
vt 0.381121 0.874925
vt 0.500000 0.874925
vt 0.638526 0.999900
vt 0.500000 0.999900
vt 0.500000 0.874925
vt 0.638526 0.874925
vt 0.262243 0.999900
vt 0.150476 0.999900
vt 0.150476 0.874925
vt 0.262243 0.874925
vt 0.150476 0.749950
vt 0.062080 0.749950
vt 0.062080 0.624975
vt 0.150476 0.624975
vt 0.150476 0.999900
vt 0.062080 0.999900
vt 0.062080 0.874925
vt 0.150476 0.874925
vt 0.381121 0.749950
vt 0.262243 0.749950
vt 0.262243 0.624975
vt 0.381121 0.624975
vt 0.262243 0.749950
vt 0.150476 0.749950
vt 0.150476 0.624975
vt 0.262243 0.624975
vt 0.381121 0.999900
vt 0.262243 0.999900
vt 0.262243 0.874925
vt 0.381121 0.874925
vt 0.500000 0.999900
vt 0.381121 0.999900
vt 0.381121 0.874925
vt 0.500000 0.874925
vt 0.638526 0.999900
vt 0.500000 0.999900
vt 0.500000 0.874925
vt 0.638526 0.874925
vt 0.262243 0.999900
vt 0.150476 0.999900
vt 0.150476 0.874925
vt 0.262243 0.874925
vt 0.150476 0.749950
vt 0.062080 0.749950
vt 0.062080 0.624975
vt 0.150476 0.624975
vt 0.150476 0.999900
vt 0.062080 0.999900
vt 0.062080 0.874925
vt 0.150476 0.874925
vt 0.381121 0.749950
vt 0.262243 0.749950
vt 0.262243 0.624975
vt 0.381121 0.624975
vt 0.262243 0.749950
vt 0.150476 0.749950
vt 0.150476 0.624975
vt 0.262243 0.624975
vt 0.381121 0.999900
vt 0.262243 0.999900
vt 0.262243 0.874925
vt 0.381121 0.874925
vn 0.0254 0.9981 -0.0566
vn -0.0359 0.9956 0.0869
vn 0.0438 0.9969 -0.0654
vn 0.0832 0.9946 0.0623
vn -0.0018 0.9985 -0.0544
vn -0.0311 0.9960 -0.0835
vn -0.1150 0.9933 -0.0077
vn -0.0582 0.9853 0.1609
vn 0.0345 0.9994 0.0004
vn 0.0688 0.9958 -0.0604
vn -0.1255 0.9917 0.0272
vn -0.0922 0.9902 -0.1045
vn 0.0704 0.9961 0.0529
vn 0.0656 0.9952 0.0726
vn -0.0869 0.9939 -0.0676
vn -0.0678 0.9919 0.1078
vn 0.0297 0.9992 -0.0283
vn 0.1226 0.9878 0.0959
vn -0.0061 0.9996 0.0263
vn 0.0859 0.9869 -0.1362
usemtl Material.002
s 1
f 1/1/1 3/2/1 4/3/1 2/4/1
f 7/5/2 5/6/2 6/7/2 8/8/2
f 9/9/3 11/10/3 12/11/3 10/12/3
f 16/13/4 13/14/4 14/15/4 15/16/4
f 17/17/5 20/18/5 19/19/5 18/20/5
f 24/21/6 21/22/6 22/23/6 23/24/6
f 25/25/7 27/26/7 28/27/7 26/28/7
f 29/29/8 31/30/8 32/31/8 30/32/8
f 33/33/9 35/34/9 36/35/9 34/36/9
f 39/37/10 37/38/10 38/39/10 40/40/10
f 41/41/11 43/42/11 44/43/11 42/44/11
f 48/45/12 45/46/12 46/47/12 47/48/12
f 49/49/13 52/50/13 51/51/13 50/52/13
f 56/53/14 53/54/14 54/55/14 55/56/14
f 57/57/15 59/58/15 60/59/15 58/60/15
f 61/61/16 63/62/16 64/63/16 62/64/16
f 65/65/17 67/66/17 68/67/17 66/68/17
f 71/69/18 69/70/18 70/71/18 72/72/18
f 73/73/19 75/74/19 76/75/19 74/76/19
f 80/77/20 77/78/20 78/79/20 79/80/20
